<mxfile host="app.diagrams.net" agent="Mozilla/5.0 (Windows NT 10.0; Win64; x64) AppleWebKit/537.36 (KHTML, like Gecko) Chrome/134.0.0.0 Safari/537.36" version="26.1.1">
  <diagram id="l8hXMBHkgcEJcSW0mbfh" name="Page-1">
    <mxGraphModel dx="2158" dy="1369" grid="1" gridSize="10" guides="1" tooltips="1" connect="1" arrows="1" fold="1" page="1" pageScale="1" pageWidth="1169" pageHeight="827" math="0" shadow="0">
      <root>
        <mxCell id="0" />
        <mxCell id="1" parent="0" />
        <mxCell id="q2HG8QPu7T1CwL4W8OTE-35" value="" style="rounded=1;whiteSpace=wrap;html=1;fillColor=#f8cecc;strokeColor=#b85450;" parent="1" vertex="1">
          <mxGeometry x="-280" y="-70" width="190" height="160" as="geometry" />
        </mxCell>
        <mxCell id="q2HG8QPu7T1CwL4W8OTE-34" value="" style="rounded=1;whiteSpace=wrap;html=1;fillColor=#dae8fc;strokeColor=#6c8ebf;" parent="1" vertex="1">
          <mxGeometry x="-280" y="100" width="190" height="360" as="geometry" />
        </mxCell>
        <mxCell id="q2HG8QPu7T1CwL4W8OTE-33" value="" style="rounded=1;whiteSpace=wrap;html=1;fillColor=#ffe6cc;strokeColor=#d79b00;" parent="1" vertex="1">
          <mxGeometry x="-70" y="-70" width="830" height="530" as="geometry" />
        </mxCell>
        <mxCell id="q2HG8QPu7T1CwL4W8OTE-12" style="edgeStyle=orthogonalEdgeStyle;rounded=0;orthogonalLoop=1;jettySize=auto;html=1;endArrow=none;startFill=0;" parent="1" target="q2HG8QPu7T1CwL4W8OTE-8" edge="1">
          <mxGeometry relative="1" as="geometry">
            <mxPoint x="310" y="280" as="targetPoint" />
            <Array as="points">
              <mxPoint x="280" y="181" />
            </Array>
            <mxPoint x="-40" y="180.66666666666652" as="sourcePoint" />
          </mxGeometry>
        </mxCell>
        <mxCell id="q2HG8QPu7T1CwL4W8OTE-24" style="edgeStyle=orthogonalEdgeStyle;rounded=0;orthogonalLoop=1;jettySize=auto;html=1;endArrow=none;startFill=0;exitX=0;exitY=0.81;exitDx=0;exitDy=0;exitPerimeter=0;" parent="1" target="q2HG8QPu7T1CwL4W8OTE-6" edge="1">
          <mxGeometry relative="1" as="geometry">
            <mxPoint x="-120" y="200.0050000000001" as="sourcePoint" />
            <Array as="points">
              <mxPoint x="-120" y="332" />
            </Array>
          </mxGeometry>
        </mxCell>
        <mxCell id="v_zZV-oKxVdYTd-pvLKk-4" style="rounded=0;orthogonalLoop=1;jettySize=auto;html=1;exitX=0.73;exitY=1;exitDx=0;exitDy=0;exitPerimeter=0;endArrow=none;startFill=0;" parent="1" target="v_zZV-oKxVdYTd-pvLKk-5" edge="1">
          <mxGeometry relative="1" as="geometry">
            <mxPoint x="260" y="279" as="targetPoint" />
            <mxPoint x="-61.59999999999991" y="211.8800000000001" as="sourcePoint" />
          </mxGeometry>
        </mxCell>
        <mxCell id="q2HG8QPu7T1CwL4W8OTE-11" style="edgeStyle=orthogonalEdgeStyle;rounded=0;orthogonalLoop=1;jettySize=auto;html=1;endArrow=none;startFill=0;" parent="1" source="v_zZV-oKxVdYTd-pvLKk-5" target="q2HG8QPu7T1CwL4W8OTE-8" edge="1">
          <mxGeometry relative="1" as="geometry" />
        </mxCell>
        <mxCell id="v_zZV-oKxVdYTd-pvLKk-5" value="Database" style="image;aspect=fixed;perimeter=ellipsePerimeter;html=1;align=center;shadow=0;dashed=0;spacingTop=3;image=img/lib/active_directory/database.svg;" parent="1" vertex="1">
          <mxGeometry x="40" y="380.28" width="50" height="37" as="geometry" />
        </mxCell>
        <mxCell id="v_zZV-oKxVdYTd-pvLKk-7" style="edgeStyle=none;rounded=0;orthogonalLoop=1;jettySize=auto;html=1;exitX=0.5;exitY=1;exitDx=0;exitDy=0;exitPerimeter=0;entryX=1;entryY=0;entryDx=0;entryDy=0;endArrow=none;startFill=0;" parent="1" source="v_zZV-oKxVdYTd-pvLKk-6" target="v_zZV-oKxVdYTd-pvLKk-5" edge="1">
          <mxGeometry relative="1" as="geometry" />
        </mxCell>
        <mxCell id="q2HG8QPu7T1CwL4W8OTE-9" style="rounded=0;orthogonalLoop=1;jettySize=auto;html=1;endArrow=none;startFill=0;exitX=1;exitY=0.5;exitDx=0;exitDy=0;exitPerimeter=0;" parent="1" source="v_zZV-oKxVdYTd-pvLKk-6" target="q2HG8QPu7T1CwL4W8OTE-8" edge="1">
          <mxGeometry relative="1" as="geometry" />
        </mxCell>
        <mxCell id="v_zZV-oKxVdYTd-pvLKk-6" value="&lt;span style=&quot;background-color: rgb(255, 255, 255);&quot;&gt;&lt;font style=&quot;color: rgb(0, 0, 0);&quot;&gt;Mail&lt;/font&gt;&lt;/span&gt;" style="html=1;whiteSpace=wrap;strokeColor=none;fillColor=#0079D6;labelPosition=center;verticalLabelPosition=middle;verticalAlign=top;align=center;fontSize=12;outlineConnect=0;spacingTop=-6;fontColor=#FFFFFF;sketch=0;shape=mxgraph.sitemap.mail;" parent="1" vertex="1">
          <mxGeometry x="144.75" y="291.99999999999994" width="80" height="40" as="geometry" />
        </mxCell>
        <mxCell id="v_zZV-oKxVdYTd-pvLKk-9" style="edgeStyle=orthogonalEdgeStyle;rounded=0;orthogonalLoop=1;jettySize=auto;html=1;endArrow=none;startFill=0;" parent="1" source="v_zZV-oKxVdYTd-pvLKk-8" target="v_zZV-oKxVdYTd-pvLKk-6" edge="1">
          <mxGeometry relative="1" as="geometry" />
        </mxCell>
        <mxCell id="q2HG8QPu7T1CwL4W8OTE-10" style="edgeStyle=orthogonalEdgeStyle;rounded=0;orthogonalLoop=1;jettySize=auto;html=1;endArrow=none;startFill=0;" parent="1" source="v_zZV-oKxVdYTd-pvLKk-8" target="q2HG8QPu7T1CwL4W8OTE-8" edge="1">
          <mxGeometry relative="1" as="geometry">
            <Array as="points">
              <mxPoint x="300" y="54" />
            </Array>
          </mxGeometry>
        </mxCell>
        <mxCell id="v_zZV-oKxVdYTd-pvLKk-8" value="&lt;span style=&quot;background-color: light-dark(#ffffff, var(--ge-dark-color, #121212));&quot;&gt;SSO&lt;/span&gt;" style="outlineConnect=0;dashed=0;verticalLabelPosition=bottom;verticalAlign=top;align=center;html=1;shape=mxgraph.aws3.add_on;fillColor=#759C3E;gradientColor=none;" parent="1" vertex="1">
          <mxGeometry x="160" y="40" width="49.5" height="27" as="geometry" />
        </mxCell>
        <mxCell id="v_zZV-oKxVdYTd-pvLKk-10" style="edgeStyle=orthogonalEdgeStyle;rounded=0;orthogonalLoop=1;jettySize=auto;html=1;exitX=0;exitY=0.5;exitDx=0;exitDy=0;exitPerimeter=0;entryX=0.82;entryY=0;entryDx=0;entryDy=0;entryPerimeter=0;endArrow=none;startFill=0;" parent="1" source="v_zZV-oKxVdYTd-pvLKk-8" edge="1">
          <mxGeometry relative="1" as="geometry">
            <Array as="points">
              <mxPoint x="-54" y="54" />
            </Array>
            <mxPoint x="-54.40000000000009" y="149.3800000000001" as="targetPoint" />
          </mxGeometry>
        </mxCell>
        <mxCell id="q2HG8QPu7T1CwL4W8OTE-3" value="&lt;span style=&quot;background-color: light-dark(#ffffff, var(--ge-dark-color, #121212));&quot;&gt;&lt;font style=&quot;color: rgb(0, 0, 0);&quot;&gt;Paiement&lt;/font&gt;&lt;/span&gt;" style="html=1;whiteSpace=wrap;strokeColor=none;fillColor=#0079D6;labelPosition=center;verticalLabelPosition=middle;verticalAlign=top;align=center;fontSize=12;outlineConnect=0;spacingTop=-6;fontColor=#FFFFFF;sketch=0;shape=mxgraph.sitemap.payment;" parent="1" vertex="1">
          <mxGeometry x="-250" y="27" width="80" height="40" as="geometry" />
        </mxCell>
        <mxCell id="q2HG8QPu7T1CwL4W8OTE-6" value="Dashboard performances" style="image;aspect=fixed;html=1;points=[];align=center;fontSize=12;image=img/lib/azure2/other/Azure_Monitor_Dashboard.svg;" parent="1" vertex="1">
          <mxGeometry x="-209" y="299.99999999999994" width="68" height="63.2" as="geometry" />
        </mxCell>
        <mxCell id="q2HG8QPu7T1CwL4W8OTE-8" value="&lt;span style=&quot;background-color: light-dark(#ffffff, var(--ge-dark-color, #121212));&quot;&gt;Logs&lt;/span&gt;" style="sketch=0;outlineConnect=0;fontColor=#232F3E;gradientColor=none;fillColor=#232F3D;strokeColor=none;dashed=0;verticalLabelPosition=bottom;verticalAlign=top;align=center;html=1;fontSize=12;fontStyle=0;aspect=fixed;pointerEvents=1;shape=mxgraph.aws4.logs;" parent="1" vertex="1">
          <mxGeometry x="270" y="233.01999999999998" width="43.84" height="60" as="geometry" />
        </mxCell>
        <mxCell id="q2HG8QPu7T1CwL4W8OTE-16" style="edgeStyle=orthogonalEdgeStyle;rounded=0;orthogonalLoop=1;jettySize=auto;html=1;entryX=0.99;entryY=0.5;entryDx=0;entryDy=0;entryPerimeter=0;endArrow=none;startFill=0;" parent="1" source="q2HG8QPu7T1CwL4W8OTE-8" target="q2HG8QPu7T1CwL4W8OTE-15" edge="1">
          <mxGeometry relative="1" as="geometry">
            <Array as="points">
              <mxPoint x="240" y="258" />
              <mxPoint x="240" y="258" />
            </Array>
          </mxGeometry>
        </mxCell>
        <mxCell id="q2HG8QPu7T1CwL4W8OTE-17" style="edgeStyle=orthogonalEdgeStyle;rounded=0;orthogonalLoop=1;jettySize=auto;html=1;entryX=0.5;entryY=1;entryDx=0;entryDy=0;entryPerimeter=0;endArrow=none;startFill=0;" parent="1" source="v_zZV-oKxVdYTd-pvLKk-5" target="q2HG8QPu7T1CwL4W8OTE-15" edge="1">
          <mxGeometry relative="1" as="geometry" />
        </mxCell>
        <mxCell id="q2HG8QPu7T1CwL4W8OTE-18" style="rounded=0;orthogonalLoop=1;jettySize=auto;html=1;entryX=0.78;entryY=0.95;entryDx=0;entryDy=0;entryPerimeter=0;endArrow=none;startFill=0;exitX=0;exitY=0.5;exitDx=0;exitDy=0;exitPerimeter=0;" parent="1" source="v_zZV-oKxVdYTd-pvLKk-6" target="q2HG8QPu7T1CwL4W8OTE-15" edge="1">
          <mxGeometry relative="1" as="geometry" />
        </mxCell>
        <mxCell id="q2HG8QPu7T1CwL4W8OTE-19" style="rounded=0;orthogonalLoop=1;jettySize=auto;html=1;entryX=0.255;entryY=0.265;entryDx=0;entryDy=0;entryPerimeter=0;endArrow=none;startFill=0;" parent="1" target="q2HG8QPu7T1CwL4W8OTE-15" edge="1">
          <mxGeometry relative="1" as="geometry">
            <mxPoint x="-40" y="200.60589453860644" as="sourcePoint" />
          </mxGeometry>
        </mxCell>
        <mxCell id="q2HG8QPu7T1CwL4W8OTE-20" style="rounded=0;orthogonalLoop=1;jettySize=auto;html=1;entryX=0.87;entryY=0.15;entryDx=0;entryDy=0;entryPerimeter=0;endArrow=none;startFill=0;" parent="1" source="v_zZV-oKxVdYTd-pvLKk-8" target="q2HG8QPu7T1CwL4W8OTE-15" edge="1">
          <mxGeometry relative="1" as="geometry">
            <mxPoint x="60" y="170" as="targetPoint" />
          </mxGeometry>
        </mxCell>
        <mxCell id="q2HG8QPu7T1CwL4W8OTE-37" value="" style="rounded=1;whiteSpace=wrap;html=1;fillColor=#dae8fc;strokeColor=#6c8ebf;" parent="1" vertex="1">
          <mxGeometry x="380" y="155.28" width="330" height="190" as="geometry" />
        </mxCell>
        <mxCell id="q2HG8QPu7T1CwL4W8OTE-40" style="edgeStyle=orthogonalEdgeStyle;rounded=0;orthogonalLoop=1;jettySize=auto;html=1;endArrow=none;startFill=0;" parent="1" source="q2HG8QPu7T1CwL4W8OTE-21" target="q2HG8QPu7T1CwL4W8OTE-28" edge="1">
          <mxGeometry relative="1" as="geometry" />
        </mxCell>
        <mxCell id="q2HG8QPu7T1CwL4W8OTE-21" value="&lt;span style=&quot;background-color: light-dark(#ffffff, var(--ge-dark-color, #121212));&quot;&gt;SIEM&lt;/span&gt;" style="verticalLabelPosition=bottom;sketch=0;html=1;fillColor=#6ABD46;strokeColor=#ffffff;verticalAlign=top;align=center;points=[[0.085,0.085,0],[0.915,0.085,0],[0.915,0.915,0],[0.085,0.915,0],[0.25,0,0],[0.5,0,0],[0.75,0,0],[1,0.25,0],[1,0.5,0],[1,0.75,0],[0.75,1,0],[0.5,1,0],[0.25,1,0],[0,0.75,0],[0,0.5,0],[0,0.25,0]];pointerEvents=1;shape=mxgraph.cisco_safe.compositeIcon;bgIcon=mxgraph.cisco_safe.architecture.generic_appliance;resIcon=mxgraph.cisco_safe.architecture.siem;" parent="1" vertex="1">
          <mxGeometry x="400" y="212.67999999999998" width="110" height="101.88" as="geometry" />
        </mxCell>
        <mxCell id="q2HG8QPu7T1CwL4W8OTE-28" value="Dashboard sécurité" style="image;aspect=fixed;html=1;points=[];align=center;fontSize=12;image=img/lib/azure2/other/Azure_Monitor_Dashboard.svg;" parent="1" vertex="1">
          <mxGeometry x="640" y="232.02" width="68" height="63.2" as="geometry" />
        </mxCell>
        <mxCell id="q2HG8QPu7T1CwL4W8OTE-36" style="edgeStyle=orthogonalEdgeStyle;rounded=0;orthogonalLoop=1;jettySize=auto;html=1;entryX=0.5;entryY=0.12;entryDx=0;entryDy=0;entryPerimeter=0;endArrow=none;startFill=0;" parent="1" source="q2HG8QPu7T1CwL4W8OTE-22" target="q2HG8QPu7T1CwL4W8OTE-15" edge="1">
          <mxGeometry relative="1" as="geometry">
            <Array as="points">
              <mxPoint x="65" y="10" />
            </Array>
          </mxGeometry>
        </mxCell>
        <mxCell id="q2HG8QPu7T1CwL4W8OTE-38" style="edgeStyle=orthogonalEdgeStyle;rounded=0;orthogonalLoop=1;jettySize=auto;html=1;entryX=0;entryY=0.5;entryDx=0;entryDy=0;entryPerimeter=0;endArrow=none;startFill=0;" parent="1" source="q2HG8QPu7T1CwL4W8OTE-8" target="q2HG8QPu7T1CwL4W8OTE-21" edge="1">
          <mxGeometry relative="1" as="geometry" />
        </mxCell>
        <mxCell id="q2HG8QPu7T1CwL4W8OTE-42" value="&lt;h2&gt;Système&amp;nbsp;&lt;span style=&quot;background-color: transparent; color: light-dark(rgb(0, 0, 0), rgb(255, 255, 255));&quot;&gt;IT&lt;/span&gt;&lt;/h2&gt;" style="text;html=1;align=center;verticalAlign=middle;whiteSpace=wrap;rounded=0;" parent="1" vertex="1">
          <mxGeometry x="270" y="-30" width="150" height="30" as="geometry" />
        </mxCell>
        <mxCell id="q2HG8QPu7T1CwL4W8OTE-44" value="&lt;h2&gt;Externe&lt;/h2&gt;" style="text;html=1;align=center;verticalAlign=middle;whiteSpace=wrap;rounded=0;" parent="1" vertex="1">
          <mxGeometry x="-260" y="-60" width="150" height="30" as="geometry" />
        </mxCell>
        <mxCell id="q2HG8QPu7T1CwL4W8OTE-47" value="&lt;h2&gt;&lt;/h2&gt;&lt;h2&gt;Administration de l&#39;entreprise/ Utilisateurs&lt;/h2&gt;" style="text;html=1;align=center;verticalAlign=middle;whiteSpace=wrap;rounded=0;" parent="1" vertex="1">
          <mxGeometry x="-260" y="110" width="150" height="70" as="geometry" />
        </mxCell>
        <mxCell id="q2HG8QPu7T1CwL4W8OTE-48" value="&lt;h2&gt;Administration IT&lt;/h2&gt;" style="text;html=1;align=center;verticalAlign=middle;whiteSpace=wrap;rounded=0;" parent="1" vertex="1">
          <mxGeometry x="500" y="180" width="150" height="30" as="geometry" />
        </mxCell>
        <mxCell id="q2HG8QPu7T1CwL4W8OTE-15" value="&lt;span style=&quot;background-color: light-dark(#ffffff, var(--ge-dark-color, #121212));&quot;&gt;Backups&lt;/span&gt;" style="verticalLabelPosition=bottom;html=1;verticalAlign=top;align=center;strokeColor=none;fillColor=#00BEF2;shape=mxgraph.azure.backup_service;" parent="1" vertex="1">
          <mxGeometry x="40" y="235" width="50" height="45" as="geometry" />
        </mxCell>
        <mxCell id="q2HG8QPu7T1CwL4W8OTE-22" value="Firewall" style="image;html=1;image=img/lib/clip_art/networking/Firewall_02_128x128.png" parent="1" vertex="1">
          <mxGeometry x="-120" y="-30" width="80" height="80" as="geometry" />
        </mxCell>
        <mxCell id="Nq3GSmhVlmSOSrLm7PtE-2" value="" style="rounded=1;whiteSpace=wrap;html=1;fillColor=#f8cecc;strokeColor=#b85450;" parent="1" vertex="1">
          <mxGeometry x="-280" y="-70" width="190" height="160" as="geometry" />
        </mxCell>
        <mxCell id="Nq3GSmhVlmSOSrLm7PtE-3" value="" style="rounded=1;whiteSpace=wrap;html=1;fillColor=#dae8fc;strokeColor=#6c8ebf;" parent="1" vertex="1">
          <mxGeometry x="-280" y="100" width="190" height="360" as="geometry" />
        </mxCell>
        <mxCell id="Nq3GSmhVlmSOSrLm7PtE-4" value="" style="rounded=1;whiteSpace=wrap;html=1;fillColor=#ffe6cc;strokeColor=#d79b00;" parent="1" vertex="1">
          <mxGeometry x="-70" y="-70" width="830" height="530" as="geometry" />
        </mxCell>
        <mxCell id="Nq3GSmhVlmSOSrLm7PtE-5" style="edgeStyle=orthogonalEdgeStyle;rounded=0;orthogonalLoop=1;jettySize=auto;html=1;endArrow=none;startFill=0;" parent="1" source="Nq3GSmhVlmSOSrLm7PtE-39" target="Nq3GSmhVlmSOSrLm7PtE-20" edge="1">
          <mxGeometry relative="1" as="geometry">
            <mxPoint x="310" y="280" as="targetPoint" />
            <Array as="points">
              <mxPoint x="90" y="250" />
              <mxPoint x="90" y="250" />
            </Array>
          </mxGeometry>
        </mxCell>
        <mxCell id="Nq3GSmhVlmSOSrLm7PtE-6" style="edgeStyle=orthogonalEdgeStyle;rounded=0;orthogonalLoop=1;jettySize=auto;html=1;endArrow=none;startFill=0;exitX=0.107;exitY=0.818;exitDx=0;exitDy=0;exitPerimeter=0;" parent="1" source="Nq3GSmhVlmSOSrLm7PtE-39" target="Nq3GSmhVlmSOSrLm7PtE-19" edge="1">
          <mxGeometry relative="1" as="geometry">
            <mxPoint x="-90" y="200" as="sourcePoint" />
            <Array as="points">
              <mxPoint x="-121" y="332" />
            </Array>
          </mxGeometry>
        </mxCell>
        <mxCell id="Nq3GSmhVlmSOSrLm7PtE-7" style="rounded=0;orthogonalLoop=1;jettySize=auto;html=1;exitX=0.73;exitY=1;exitDx=0;exitDy=0;exitPerimeter=0;endArrow=none;startFill=0;" parent="1" source="Nq3GSmhVlmSOSrLm7PtE-39" target="Nq3GSmhVlmSOSrLm7PtE-9" edge="1">
          <mxGeometry relative="1" as="geometry">
            <mxPoint x="260" y="279" as="targetPoint" />
          </mxGeometry>
        </mxCell>
        <mxCell id="Nq3GSmhVlmSOSrLm7PtE-8" style="edgeStyle=orthogonalEdgeStyle;rounded=0;orthogonalLoop=1;jettySize=auto;html=1;endArrow=none;startFill=0;" parent="1" source="Nq3GSmhVlmSOSrLm7PtE-9" target="Nq3GSmhVlmSOSrLm7PtE-20" edge="1">
          <mxGeometry relative="1" as="geometry" />
        </mxCell>
        <mxCell id="Nq3GSmhVlmSOSrLm7PtE-9" value="Database" style="image;aspect=fixed;perimeter=ellipsePerimeter;html=1;align=center;shadow=0;dashed=0;spacingTop=3;image=img/lib/active_directory/database.svg;" parent="1" vertex="1">
          <mxGeometry x="40" y="380.28" width="50" height="37" as="geometry" />
        </mxCell>
        <mxCell id="Nq3GSmhVlmSOSrLm7PtE-10" style="edgeStyle=none;rounded=0;orthogonalLoop=1;jettySize=auto;html=1;exitX=0.5;exitY=1;exitDx=0;exitDy=0;exitPerimeter=0;entryX=1;entryY=0;entryDx=0;entryDy=0;endArrow=none;startFill=0;" parent="1" source="Nq3GSmhVlmSOSrLm7PtE-12" target="Nq3GSmhVlmSOSrLm7PtE-9" edge="1">
          <mxGeometry relative="1" as="geometry" />
        </mxCell>
        <mxCell id="Nq3GSmhVlmSOSrLm7PtE-11" style="rounded=0;orthogonalLoop=1;jettySize=auto;html=1;endArrow=none;startFill=0;exitX=1;exitY=0.5;exitDx=0;exitDy=0;exitPerimeter=0;" parent="1" source="Nq3GSmhVlmSOSrLm7PtE-12" target="Nq3GSmhVlmSOSrLm7PtE-20" edge="1">
          <mxGeometry relative="1" as="geometry" />
        </mxCell>
        <mxCell id="Nq3GSmhVlmSOSrLm7PtE-12" value="&lt;span style=&quot;background-color: rgb(255, 255, 255);&quot;&gt;&lt;font style=&quot;color: rgb(0, 0, 0);&quot;&gt;Mail&lt;/font&gt;&lt;/span&gt;" style="html=1;whiteSpace=wrap;strokeColor=none;fillColor=#0079D6;labelPosition=center;verticalLabelPosition=bottom;verticalAlign=top;align=center;fontSize=12;outlineConnect=0;spacingTop=-6;fontColor=#FFFFFF;sketch=0;shape=mxgraph.sitemap.mail;" parent="1" vertex="1">
          <mxGeometry x="144.75" y="291.99999999999994" width="80" height="40" as="geometry" />
        </mxCell>
        <mxCell id="Nq3GSmhVlmSOSrLm7PtE-13" style="edgeStyle=orthogonalEdgeStyle;rounded=0;orthogonalLoop=1;jettySize=auto;html=1;endArrow=none;startFill=0;" parent="1" source="Nq3GSmhVlmSOSrLm7PtE-15" target="Nq3GSmhVlmSOSrLm7PtE-12" edge="1">
          <mxGeometry relative="1" as="geometry" />
        </mxCell>
        <mxCell id="Nq3GSmhVlmSOSrLm7PtE-14" style="edgeStyle=orthogonalEdgeStyle;rounded=0;orthogonalLoop=1;jettySize=auto;html=1;endArrow=none;startFill=0;" parent="1" source="Nq3GSmhVlmSOSrLm7PtE-15" target="Nq3GSmhVlmSOSrLm7PtE-20" edge="1">
          <mxGeometry relative="1" as="geometry">
            <Array as="points">
              <mxPoint x="300" y="54" />
            </Array>
          </mxGeometry>
        </mxCell>
        <mxCell id="Nq3GSmhVlmSOSrLm7PtE-15" value="&lt;span style=&quot;background-color: light-dark(#ffffff, var(--ge-dark-color, #121212));&quot;&gt;SSO&lt;/span&gt;" style="outlineConnect=0;dashed=0;verticalLabelPosition=bottom;verticalAlign=top;align=center;html=1;shape=mxgraph.aws3.add_on;fillColor=#759C3E;gradientColor=none;" parent="1" vertex="1">
          <mxGeometry x="160" y="40" width="49.5" height="27" as="geometry" />
        </mxCell>
        <mxCell id="Nq3GSmhVlmSOSrLm7PtE-16" style="edgeStyle=orthogonalEdgeStyle;rounded=0;orthogonalLoop=1;jettySize=auto;html=1;exitX=0;exitY=0.5;exitDx=0;exitDy=0;exitPerimeter=0;entryX=0.82;entryY=0;entryDx=0;entryDy=0;entryPerimeter=0;endArrow=none;startFill=0;" parent="1" source="Nq3GSmhVlmSOSrLm7PtE-15" target="Nq3GSmhVlmSOSrLm7PtE-39" edge="1">
          <mxGeometry relative="1" as="geometry">
            <Array as="points">
              <mxPoint x="-54" y="54" />
            </Array>
          </mxGeometry>
        </mxCell>
        <mxCell id="Nq3GSmhVlmSOSrLm7PtE-17" value="&lt;span style=&quot;background-color: light-dark(#ffffff, var(--ge-dark-color, #121212));&quot;&gt;&lt;font style=&quot;color: rgb(0, 0, 0);&quot;&gt;Paiement&lt;/font&gt;&lt;/span&gt;" style="html=1;whiteSpace=wrap;strokeColor=none;fillColor=#0079D6;labelPosition=center;verticalLabelPosition=bottom;verticalAlign=top;align=center;fontSize=12;outlineConnect=0;spacingTop=-6;fontColor=#FFFFFF;sketch=0;shape=mxgraph.sitemap.payment;" parent="1" vertex="1">
          <mxGeometry x="-250" y="27" width="80" height="40" as="geometry" />
        </mxCell>
        <mxCell id="Nq3GSmhVlmSOSrLm7PtE-18" style="edgeStyle=orthogonalEdgeStyle;rounded=0;orthogonalLoop=1;jettySize=auto;html=1;endArrow=none;startFill=0;" parent="1" source="Nq3GSmhVlmSOSrLm7PtE-17" edge="1" target="Nq3GSmhVlmSOSrLm7PtE-39">
          <mxGeometry relative="1" as="geometry">
            <mxPoint x="-170" y="67" as="sourcePoint" />
            <mxPoint x="-80" y="146.37999999999988" as="targetPoint" />
            <Array as="points">
              <mxPoint x="-110" y="60" />
            </Array>
          </mxGeometry>
        </mxCell>
        <mxCell id="Nq3GSmhVlmSOSrLm7PtE-19" value="Dashboard performances" style="image;aspect=fixed;html=1;points=[];align=center;fontSize=12;image=img/lib/azure2/other/Azure_Monitor_Dashboard.svg;" parent="1" vertex="1">
          <mxGeometry x="-209" y="299.99999999999994" width="68" height="63.2" as="geometry" />
        </mxCell>
        <mxCell id="Nq3GSmhVlmSOSrLm7PtE-20" value="&lt;span style=&quot;background-color: light-dark(#ffffff, var(--ge-dark-color, #121212));&quot;&gt;Logs&lt;/span&gt;" style="sketch=0;outlineConnect=0;fontColor=#232F3E;gradientColor=none;fillColor=#232F3D;strokeColor=none;dashed=0;verticalLabelPosition=bottom;verticalAlign=top;align=center;html=1;fontSize=12;fontStyle=0;aspect=fixed;pointerEvents=1;shape=mxgraph.aws4.logs;" parent="1" vertex="1">
          <mxGeometry x="270" y="233.01999999999998" width="43.84" height="60" as="geometry" />
        </mxCell>
        <mxCell id="Nq3GSmhVlmSOSrLm7PtE-21" style="edgeStyle=orthogonalEdgeStyle;rounded=0;orthogonalLoop=1;jettySize=auto;html=1;entryX=0.799;entryY=0.323;entryDx=0;entryDy=0;entryPerimeter=0;endArrow=none;startFill=0;" parent="1" target="Nq3GSmhVlmSOSrLm7PtE-37" edge="1">
          <mxGeometry relative="1" as="geometry">
            <Array as="points">
              <mxPoint x="80" y="281" />
            </Array>
            <mxPoint x="270.6018181818181" y="280.5344827586207" as="sourcePoint" />
            <mxPoint x="90" y="314.55999999999995" as="targetPoint" />
          </mxGeometry>
        </mxCell>
        <mxCell id="Nq3GSmhVlmSOSrLm7PtE-22" style="edgeStyle=orthogonalEdgeStyle;rounded=0;orthogonalLoop=1;jettySize=auto;html=1;entryX=0.5;entryY=1;entryDx=0;entryDy=0;entryPerimeter=0;endArrow=none;startFill=0;" parent="1" source="Nq3GSmhVlmSOSrLm7PtE-9" target="Nq3GSmhVlmSOSrLm7PtE-37" edge="1">
          <mxGeometry relative="1" as="geometry" />
        </mxCell>
        <mxCell id="Nq3GSmhVlmSOSrLm7PtE-23" style="rounded=0;orthogonalLoop=1;jettySize=auto;html=1;entryX=0.78;entryY=0.95;entryDx=0;entryDy=0;entryPerimeter=0;endArrow=none;startFill=0;exitX=0;exitY=0.5;exitDx=0;exitDy=0;exitPerimeter=0;" parent="1" source="Nq3GSmhVlmSOSrLm7PtE-12" target="Nq3GSmhVlmSOSrLm7PtE-37" edge="1">
          <mxGeometry relative="1" as="geometry" />
        </mxCell>
        <mxCell id="Nq3GSmhVlmSOSrLm7PtE-24" style="rounded=0;orthogonalLoop=1;jettySize=auto;html=1;entryX=0.255;entryY=0.265;entryDx=0;entryDy=0;entryPerimeter=0;endArrow=none;startFill=0;" parent="1" source="Nq3GSmhVlmSOSrLm7PtE-39" target="Nq3GSmhVlmSOSrLm7PtE-37" edge="1">
          <mxGeometry relative="1" as="geometry" />
        </mxCell>
        <mxCell id="Nq3GSmhVlmSOSrLm7PtE-25" style="rounded=0;orthogonalLoop=1;jettySize=auto;html=1;entryX=0.87;entryY=0.15;entryDx=0;entryDy=0;entryPerimeter=0;endArrow=none;startFill=0;" parent="1" source="Nq3GSmhVlmSOSrLm7PtE-15" target="Nq3GSmhVlmSOSrLm7PtE-37" edge="1">
          <mxGeometry relative="1" as="geometry">
            <mxPoint x="60" y="170" as="targetPoint" />
          </mxGeometry>
        </mxCell>
        <mxCell id="Nq3GSmhVlmSOSrLm7PtE-26" value="" style="rounded=1;whiteSpace=wrap;html=1;fillColor=#dae8fc;strokeColor=#6c8ebf;" parent="1" vertex="1">
          <mxGeometry x="380" y="155.28" width="330" height="190" as="geometry" />
        </mxCell>
        <mxCell id="Nq3GSmhVlmSOSrLm7PtE-27" style="edgeStyle=orthogonalEdgeStyle;rounded=0;orthogonalLoop=1;jettySize=auto;html=1;endArrow=none;startFill=0;" parent="1" source="Nq3GSmhVlmSOSrLm7PtE-28" target="Nq3GSmhVlmSOSrLm7PtE-30" edge="1">
          <mxGeometry relative="1" as="geometry" />
        </mxCell>
        <mxCell id="Nq3GSmhVlmSOSrLm7PtE-28" value="&lt;span style=&quot;background-color: light-dark(#ffffff, var(--ge-dark-color, #121212));&quot;&gt;SIEM&lt;/span&gt;" style="verticalLabelPosition=bottom;sketch=0;html=1;fillColor=#6ABD46;strokeColor=#ffffff;verticalAlign=top;align=center;points=[[0.085,0.085,0],[0.915,0.085,0],[0.915,0.915,0],[0.085,0.915,0],[0.25,0,0],[0.5,0,0],[0.75,0,0],[1,0.25,0],[1,0.5,0],[1,0.75,0],[0.75,1,0],[0.5,1,0],[0.25,1,0],[0,0.75,0],[0,0.5,0],[0,0.25,0]];pointerEvents=1;shape=mxgraph.cisco_safe.compositeIcon;bgIcon=mxgraph.cisco_safe.architecture.generic_appliance;resIcon=mxgraph.cisco_safe.architecture.siem;" parent="1" vertex="1">
          <mxGeometry x="400" y="212.67999999999998" width="110" height="101.88" as="geometry" />
        </mxCell>
        <mxCell id="Nq3GSmhVlmSOSrLm7PtE-30" value="Dashboard sécurité" style="image;aspect=fixed;html=1;points=[];align=center;fontSize=12;image=img/lib/azure2/other/Azure_Monitor_Dashboard.svg;" parent="1" vertex="1">
          <mxGeometry x="640" y="232.02" width="68" height="63.2" as="geometry" />
        </mxCell>
        <mxCell id="Nq3GSmhVlmSOSrLm7PtE-31" style="edgeStyle=orthogonalEdgeStyle;rounded=0;orthogonalLoop=1;jettySize=auto;html=1;entryX=0.5;entryY=0.12;entryDx=0;entryDy=0;entryPerimeter=0;endArrow=none;startFill=0;" parent="1" source="Nq3GSmhVlmSOSrLm7PtE-38" target="Nq3GSmhVlmSOSrLm7PtE-37" edge="1">
          <mxGeometry relative="1" as="geometry">
            <Array as="points">
              <mxPoint x="65" y="10" />
            </Array>
          </mxGeometry>
        </mxCell>
        <mxCell id="Nq3GSmhVlmSOSrLm7PtE-32" style="edgeStyle=orthogonalEdgeStyle;rounded=0;orthogonalLoop=1;jettySize=auto;html=1;entryX=0;entryY=0.5;entryDx=0;entryDy=0;entryPerimeter=0;endArrow=none;startFill=0;" parent="1" source="Nq3GSmhVlmSOSrLm7PtE-20" target="Nq3GSmhVlmSOSrLm7PtE-28" edge="1">
          <mxGeometry relative="1" as="geometry" />
        </mxCell>
        <mxCell id="Nq3GSmhVlmSOSrLm7PtE-33" value="&lt;h2&gt;Système&amp;nbsp;&lt;span style=&quot;background-color: transparent; color: light-dark(rgb(0, 0, 0), rgb(255, 255, 255));&quot;&gt;IT&lt;/span&gt;&lt;/h2&gt;" style="text;html=1;align=center;verticalAlign=middle;whiteSpace=wrap;rounded=0;" parent="1" vertex="1">
          <mxGeometry x="270" y="-30" width="150" height="30" as="geometry" />
        </mxCell>
        <mxCell id="Nq3GSmhVlmSOSrLm7PtE-34" value="&lt;h2&gt;Externe&lt;/h2&gt;" style="text;html=1;align=center;verticalAlign=middle;whiteSpace=wrap;rounded=0;" parent="1" vertex="1">
          <mxGeometry x="-260" y="-60" width="150" height="30" as="geometry" />
        </mxCell>
        <mxCell id="Nq3GSmhVlmSOSrLm7PtE-35" value="&lt;h2&gt;&lt;/h2&gt;&lt;h2&gt;Administration de l&#39;entreprise/ Utilisateurs&lt;/h2&gt;" style="text;html=1;align=center;verticalAlign=middle;whiteSpace=wrap;rounded=0;" parent="1" vertex="1">
          <mxGeometry x="-260" y="110" width="150" height="70" as="geometry" />
        </mxCell>
        <mxCell id="Nq3GSmhVlmSOSrLm7PtE-36" value="&lt;h2&gt;Administration IT&lt;/h2&gt;" style="text;html=1;align=center;verticalAlign=middle;whiteSpace=wrap;rounded=0;" parent="1" vertex="1">
          <mxGeometry x="500" y="180" width="150" height="30" as="geometry" />
        </mxCell>
        <mxCell id="Nq3GSmhVlmSOSrLm7PtE-37" value="&lt;span style=&quot;background-color: light-dark(#ffffff, var(--ge-dark-color, #121212));&quot;&gt;Backups&lt;/span&gt;" style="verticalLabelPosition=bottom;html=1;verticalAlign=top;align=center;strokeColor=none;fillColor=#00BEF2;shape=mxgraph.azure.backup_service;" parent="1" vertex="1">
          <mxGeometry x="40" y="269.56" width="50" height="45" as="geometry" />
        </mxCell>
        <mxCell id="Nq3GSmhVlmSOSrLm7PtE-39" value="&lt;span style=&quot;background-color: light-dark(#ffffff, var(--ge-dark-color, #121212));&quot;&gt;WebApp&lt;/span&gt;" style="verticalLabelPosition=bottom;html=1;verticalAlign=top;align=center;strokeColor=none;fillColor=#00BEF2;shape=mxgraph.azure.website_generic;pointerEvents=1;" parent="1" vertex="1">
          <mxGeometry x="-130" y="232.37" width="80" height="62.5" as="geometry" />
        </mxCell>
        <mxCell id="Nq3GSmhVlmSOSrLm7PtE-42" style="edgeStyle=orthogonalEdgeStyle;rounded=0;orthogonalLoop=1;jettySize=auto;html=1;endArrow=none;startFill=0;" parent="1" source="Nq3GSmhVlmSOSrLm7PtE-41" target="Nq3GSmhVlmSOSrLm7PtE-20" edge="1">
          <mxGeometry relative="1" as="geometry">
            <Array as="points">
              <mxPoint x="340" y="85" />
              <mxPoint x="340" y="240" />
            </Array>
          </mxGeometry>
        </mxCell>
        <mxCell id="Nq3GSmhVlmSOSrLm7PtE-41" value="" style="shape=image;imageAspect=0;aspect=fixed;verticalLabelPosition=bottom;verticalAlign=top;image=https://external-content.duckduckgo.com/iu/?u=https%3A%2F%2Fwww.plusserver.com%2Fwp-content%2Fuploads%2F2024%2F01%2FHeader_EDR-as-a-service.png&amp;f=1&amp;nofb=1&amp;ipt=074c289956e64e02c7d120a4cf64f9ee3538c892482bd62c2a8118930da7a1cf&amp;ipo=images;" parent="1" vertex="1">
          <mxGeometry x="420" y="40" width="69.38" height="69.38" as="geometry" />
        </mxCell>
        <mxCell id="Nq3GSmhVlmSOSrLm7PtE-43" style="edgeStyle=orthogonalEdgeStyle;rounded=0;orthogonalLoop=1;jettySize=auto;html=1;entryX=0.5;entryY=0;entryDx=0;entryDy=0;entryPerimeter=0;endArrow=none;startFill=0;" parent="1" source="Nq3GSmhVlmSOSrLm7PtE-41" target="Nq3GSmhVlmSOSrLm7PtE-28" edge="1">
          <mxGeometry relative="1" as="geometry" />
        </mxCell>
        <mxCell id="d05N2VgInM7JR2qqosyx-3" value="" style="edgeStyle=orthogonalEdgeStyle;rounded=0;orthogonalLoop=1;jettySize=auto;html=1;entryX=0.5;entryY=0;entryDx=0;entryDy=0;entryPerimeter=0;endArrow=none;startFill=0;" edge="1" parent="1" source="q2HG8QPu7T1CwL4W8OTE-22" target="d05N2VgInM7JR2qqosyx-1">
          <mxGeometry relative="1" as="geometry">
            <Array as="points" />
            <mxPoint x="-80" y="50" as="sourcePoint" />
            <mxPoint x="-80" y="149.3800000000001" as="targetPoint" />
          </mxGeometry>
        </mxCell>
        <mxCell id="d05N2VgInM7JR2qqosyx-4" style="edgeStyle=orthogonalEdgeStyle;rounded=0;orthogonalLoop=1;jettySize=auto;html=1;entryX=0.621;entryY=-0.012;entryDx=0;entryDy=0;entryPerimeter=0;endArrow=none;startFill=0;" edge="1" parent="1" source="d05N2VgInM7JR2qqosyx-1" target="Nq3GSmhVlmSOSrLm7PtE-39">
          <mxGeometry relative="1" as="geometry" />
        </mxCell>
        <mxCell id="d05N2VgInM7JR2qqosyx-1" value="WAF" style="points=[];aspect=fixed;html=1;align=center;shadow=0;dashed=0;fillColor=#FF6A00;strokeColor=none;shape=mxgraph.alibaba_cloud.waf_web_application_firewall;labelPosition=center;verticalLabelPosition=bottom;verticalAlign=top;labelBackgroundColor=default;" vertex="1" parent="1">
          <mxGeometry x="-104.6" y="130" width="49.199999999999996" height="43.199999999999996" as="geometry" />
        </mxCell>
        <mxCell id="Nq3GSmhVlmSOSrLm7PtE-38" value="Firewall" style="image;html=1;image=img/lib/clip_art/networking/Firewall_02_128x128.png" parent="1" vertex="1">
          <mxGeometry x="-120" y="-30" width="80" height="80" as="geometry" />
        </mxCell>
      </root>
    </mxGraphModel>
  </diagram>
</mxfile>
